<svg fill="#000000" xmlns="http://www.w3.org/2000/svg"  viewBox="0 0 50 50" width="50px" height="50px"><path d="M 15.6875 4 C 14.113281 4 12.652344 4.867188 11.875 6.25 L 2.59375 22.78125 C 1.816406 24.160156 1.816406 25.839844 2.59375 27.21875 L 11.875 43.75 C 12.652344 45.132813 14.113281 46 15.6875 46 L 34.3125 46 C 35.886719 46 37.347656 45.132813 38.125 43.75 L 47.40625 27.21875 C 48.183594 25.839844 48.183594 24.160156 47.40625 22.78125 L 38.125 6.25 C 37.347656 4.867188 35.886719 4 34.3125 4 Z M 15.6875 6 L 34.3125 6 C 35.15625 6 35.941406 6.449219 36.375 7.21875 L 45.6875 23.75 C 46.121094 24.519531 46.121094 25.480469 45.6875 26.25 L 36.375 42.78125 C 35.941406 43.550781 35.15625 44 34.3125 44 L 15.6875 44 C 14.84375 44 14.058594 43.550781 13.625 42.78125 L 4.3125 26.25 C 3.878906 25.480469 3.878906 24.519531 4.3125 23.75 L 13.625 7.21875 C 14.058594 6.449219 14.84375 6 15.6875 6 Z M 20 15 L 20 18 L 18 18 L 18 20 L 15 20 L 15 22 L 18 22 L 18 24 L 15 24 L 15 26 L 18 26 L 18 28 L 15 28 L 15 30 L 18 30 L 18 32 L 20 32 L 20 35 L 22 35 L 22 32 L 24 32 L 24 35 L 26 35 L 26 32 L 28 32 L 28 35 L 30 35 L 30 32 L 32 32 L 32 30 L 35 30 L 35 28 L 32 28 L 32 26 L 35 26 L 35 24 L 32 24 L 32 22 L 35 22 L 35 20 L 32 20 L 32 18 L 30 18 L 30 15 L 28 15 L 28 18 L 26 18 L 26 15 L 24 15 L 24 18 L 22 18 L 22 15 Z M 20 20 L 30 20 L 30 30 L 20 30 Z M 22 22 L 22 28 L 28 28 L 28 22 Z"/></svg>